<svg version="1.1" id="Layer_1" xmlns="http://www.w3.org/2000/svg" xmlns:xlink="http://www.w3.org/1999/xlink" x="0px" y="0px"
	 width="100%" viewBox="0 0 624 512" enable-background="new 0 0 624 512" xml:space="preserve">
<path fill="#ffffff" opacity="1.000000" stroke="#ffffff" 
	d="
M625.000000,213.000000 
	C625.000000,231.020889 625.000000,249.041794 624.964233,267.909821 
	C624.489502,270.358398 623.941895,271.938843 623.627625,273.564392 
	C618.239685,301.434357 612.746521,329.285370 607.640869,357.207153 
	C606.740234,362.132477 604.633545,363.442627 600.022278,363.325684 
	C590.036804,363.072479 580.026611,363.563751 570.053772,363.128052 
	C564.484680,362.884735 561.900146,364.996521 559.684448,370.005432 
	C535.281250,425.170715 496.559204,467.293762 443.745819,496.488708 
	C432.217926,502.861267 420.047546,507.783661 408.000000,513.000000 
	C396.979095,513.000000 385.958221,513.000000 374.706970,512.714844 
	C387.384583,508.582062 400.431519,505.200867 412.906281,499.974365 
	C474.626465,474.115662 519.832520,431.003967 548.397644,370.484741 
	C551.327209,364.278107 550.616699,363.220642 543.820435,363.193481 
	C529.154541,363.134888 514.486633,363.284821 499.823303,363.080322 
	C495.767456,363.023804 493.465271,364.572418 491.493408,367.995819 
	C484.230927,380.604309 475.703735,392.345612 465.419006,402.658722 
	C405.551849,462.691467 334.613159,480.990326 253.744736,456.143433 
	C206.182327,441.529877 170.153885,410.800140 144.205902,368.386688 
	C142.109222,364.959595 139.934464,362.995667 135.589340,363.067902 
	C120.760483,363.314484 105.925034,363.132050 91.092712,363.218262 
	C85.076897,363.253204 84.236481,364.624420 86.909042,370.185852 
	C121.642143,442.463318 177.594269,489.368652 254.974792,510.621887 
	C257.360504,511.277161 259.933807,511.394989 262.000000,513.000000 
	C250.645767,513.000000 239.291550,513.000000 227.211578,512.765808 
	C222.956741,511.073395 219.405472,509.666382 215.901855,508.149353 
	C152.384567,480.646423 105.830986,435.662567 77.135094,372.613739 
	C73.909241,365.526062 70.379616,362.795197 62.406326,363.024841 
	C41.954754,363.613892 21.470930,363.083069 1.000000,363.000000 
	C1.000000,361.285645 1.000000,359.571289 1.145973,357.087494 
	C2.820938,353.760529 2.490547,350.836121 2.906441,348.062195 
	C6.500507,324.090271 10.080074,300.116211 13.662391,276.142548 
	C16.556664,256.773438 19.568695,237.420593 22.250107,218.022034 
	C22.854395,213.650330 24.884586,212.605301 28.849457,212.701263 
	C36.838108,212.894623 44.839104,212.585114 52.827312,212.787170 
	C57.013760,212.893066 58.976578,211.538895 59.962009,207.178864 
	C69.408607,165.382568 87.628708,127.817421 115.242691,94.981659 
	C151.497513,51.871101 197.019241,23.307455 251.434845,8.823644 
	C264.782959,5.270777 278.498901,3.712110 292.000000,1.000000 
	C309.020905,1.000000 326.041779,1.000000 343.872711,1.158661 
	C354.646271,3.099032 364.702515,4.474721 374.559052,6.725071 
	C476.354156,29.965925 551.648865,105.150307 575.389404,207.170364 
	C576.339722,211.254288 578.142822,212.936920 582.526550,212.881012 
	C596.681519,212.700424 610.841797,212.929062 625.000000,213.000000 
M304.500000,212.858963 
	C369.635986,212.861954 434.771942,212.870621 499.907928,212.859375 
	C506.580597,212.858231 506.999512,212.323074 505.065796,206.045135 
	C499.337860,187.448929 491.273163,169.895081 479.840363,154.152100 
	C432.204651,88.557564 367.590851,58.813725 287.622162,71.157417 
	C209.344025,83.240166 157.284012,130.009995 130.841446,204.840118 
	C128.229950,212.230408 128.768997,212.844040 136.578674,212.845917 
	C192.219116,212.859406 247.859558,212.857071 304.500000,212.858963 
M220.458786,30.109091 
	C181.082001,46.554810 147.900482,71.399010 120.903862,104.354111 
	C96.232124,134.471207 79.480263,168.620255 70.537186,206.546616 
	C69.250648,212.002625 69.882301,212.808258 75.297913,212.827774 
	C88.964012,212.876999 102.632355,212.724579 116.295464,212.935013 
	C120.522537,213.000122 122.587410,211.530640 123.692314,207.407700 
	C126.804977,195.792816 131.338394,184.677856 136.738297,173.945511 
	C176.303055,95.310501 260.807434,51.526337 347.897125,64.557884 
	C391.854004,71.135315 429.534363,90.316032 460.986969,121.628693 
	C485.200928,145.734894 502.052826,174.309570 511.745850,207.080414 
	C512.692871,210.282257 513.633362,212.945724 517.896057,212.899216 
	C532.227173,212.742783 546.561096,212.817322 560.893799,212.856506 
	C564.978516,212.867676 566.062866,211.145813 565.148071,207.173965 
	C558.997986,180.471680 549.293030,155.082474 534.363831,132.168427 
	C481.157532,50.504971 405.840820,9.514395 308.017853,11.087919 
	C277.883667,11.572639 248.983307,18.344028 220.458786,30.109091 
M425.233246,428.699524 
	C437.280334,420.835022 448.259918,411.674652 458.311035,401.394806 
	C467.778625,391.711792 476.071594,381.092133 483.354034,369.685425 
	C484.306366,368.193787 485.946198,366.597809 485.054535,364.720978 
	C483.990784,362.481964 481.548065,363.418335 479.649139,363.182007 
	C479.320801,363.141083 478.983429,363.170685 478.650238,363.170685 
	C371.357697,363.172333 264.065155,363.167725 156.772644,363.221710 
	C154.566254,363.222809 151.593079,362.116638 150.320816,364.508942 
	C149.075012,366.851471 151.860336,368.605377 152.698853,370.688690 
	C152.821426,370.993195 153.032379,371.265015 153.219971,371.540039 
	C190.114029,425.631256 241.076782,455.993195 306.467346,460.413788 
	C349.089294,463.295166 388.664032,452.449860 425.233246,428.699524 
M350.074493,303.350189 
	C347.933289,313.260803 345.818481,323.177246 343.637573,333.079102 
	C342.790283,336.925964 344.052429,338.615295 348.163208,338.673096 
	C356.334198,338.787994 356.566711,338.749725 358.361938,330.605743 
	C358.719757,328.982483 359.043274,327.351746 359.393982,325.726898 
	C361.775818,314.691681 361.777161,314.688843 373.026276,315.891418 
	C373.319305,315.922729 373.585419,316.205597 373.897675,316.391083 
	C374.666412,318.007416 374.126282,319.610382 373.796844,321.225922 
	C372.899872,325.624786 372.028320,330.028839 371.138519,334.429138 
	C370.870422,335.755219 370.576111,337.056946 371.910950,338.057068 
	C375.906158,341.050507 384.694305,337.823395 385.749542,332.888092 
	C390.441193,310.944641 395.123169,288.998993 399.728516,267.037323 
	C401.261536,259.726746 403.498169,252.511688 403.574554,244.967239 
	C403.633331,239.161606 401.248383,236.500931 395.605957,235.230225 
	C391.993317,234.416626 388.344360,234.401382 384.677094,234.409058 
	C368.773651,234.442322 364.334564,237.703430 360.768860,253.259872 
	C357.017822,269.624969 353.731354,286.096588 350.074493,303.350189 
M218.192535,251.615875 
	C212.344101,278.754944 206.490341,305.892914 200.660645,333.035980 
	C200.313156,334.653870 199.951035,336.359344 201.404404,337.710480 
	C204.599716,340.681122 213.536194,338.174866 214.545502,333.946991 
	C215.703033,329.098267 216.729248,324.215485 217.689362,319.323334 
	C218.182083,316.812714 219.399475,315.447815 222.076462,315.639526 
	C225.010849,315.849701 228.031021,315.066772 230.825958,316.244781 
	C231.621796,318.036102 231.170700,319.636444 230.823669,321.263641 
	C229.922211,325.490509 229.051758,329.724487 228.224014,333.966339 
	C227.976593,335.234222 227.230316,336.932587 228.575928,337.688202 
	C231.953186,339.584686 235.721298,338.617340 239.300919,338.377747 
	C241.713913,338.216278 242.163208,335.894043 242.579224,333.912170 
	C248.418884,306.091888 254.307800,278.281708 260.048920,250.441071 
	C262.225067,239.888092 259.227081,235.352448 248.678940,234.694016 
	C226.315994,233.298096 222.363495,236.588333 218.192535,251.615875 
M440.461365,338.261108 
	C445.465912,339.974396 450.654846,339.621216 455.809601,339.615845 
	C469.901917,339.601105 474.663696,336.035095 477.766479,322.302002 
	C481.613312,305.275665 485.168793,288.182678 488.748688,271.097229 
	C490.553711,262.482422 493.146301,253.987045 493.560913,245.140045 
	C493.853027,238.906891 491.549683,236.294571 485.492462,235.181290 
	C479.044800,233.996246 472.598969,234.268372 466.101898,235.030655 
	C459.334778,235.824615 455.293457,239.453613 453.057251,245.717102 
	C451.029694,251.396179 450.012085,257.299164 448.758362,263.146393 
	C444.365479,283.634033 439.988800,304.126404 435.833496,324.662964 
	C434.845367,329.546417 434.187012,334.775757 440.461365,338.261108 
M176.867126,267.547852 
	C178.051773,262.367218 178.973267,257.107269 180.503525,252.030807 
	C181.749359,247.897888 185.979095,246.218857 190.227402,247.626099 
	C194.314560,248.979965 193.291901,252.130798 192.755295,255.086761 
	C192.577164,256.068085 192.389206,257.047791 192.224838,258.031433 
	C191.810242,260.512360 190.064484,263.383362 194.088211,264.598114 
	C199.318481,266.177155 204.419754,264.517334 205.429398,260.659180 
	C206.945892,254.864166 208.074066,249.003571 207.795227,242.928055 
	C207.606415,238.814255 205.537186,236.486786 201.762985,235.396469 
	C197.370514,234.127563 192.858521,234.361145 188.369186,234.391556 
	C174.249954,234.487244 169.443039,238.044800 166.268417,251.639893 
	C162.753143,266.693726 159.602783,281.833374 156.357391,296.949402 
	C154.403564,306.049591 152.451996,315.153290 150.717041,324.296692 
	C148.831482,334.233704 152.401260,338.961823 162.486282,339.491364 
	C169.284805,339.848358 176.105484,339.632141 182.935867,339.115814 
	C187.681412,338.757141 189.497787,336.743561 190.374176,332.310577 
	C193.402817,316.990784 196.778152,301.739777 199.975250,286.452881 
	C200.525787,283.820435 202.156921,280.679443 197.927933,279.489258 
	C192.286499,277.901581 188.176407,279.603912 187.221390,283.995270 
	C184.501144,296.503510 181.913513,309.040558 179.239578,321.558990 
	C178.247330,326.204346 175.010590,327.952698 169.927078,326.847351 
	C165.362228,325.854767 165.341599,322.664490 166.077881,319.132690 
	C169.605682,302.210236 173.169083,285.295227 176.867126,267.547852 
M308.373749,250.798874 
	C305.035278,266.233063 301.662506,281.659973 298.371490,297.104248 
	C296.466309,306.044891 294.593964,314.994812 292.885834,323.974579 
	C290.871063,334.566437 294.392303,339.115173 305.138763,339.533813 
	C312.114319,339.805573 319.099640,339.749481 326.083069,338.936676 
	C329.654755,338.520966 331.234955,337.148590 331.960052,333.571533 
	C335.129852,317.934143 338.586273,302.354797 341.949432,286.756714 
	C342.577484,283.843811 343.959595,280.657501 339.522461,279.508606 
	C333.586212,277.971527 330.166626,279.526245 329.121124,284.334106 
	C326.471252,296.519745 323.921326,308.727081 321.324188,320.924225 
	C320.199738,326.204956 317.409088,327.960144 312.038544,326.870911 
	C306.722870,325.792786 307.480164,322.089874 308.257782,318.331055 
	C310.817291,305.959351 313.333740,293.578674 315.925598,281.213776 
	C317.869598,271.939606 319.771118,262.652985 321.951294,253.433319 
	C323.154114,248.346725 326.872375,246.190170 331.698242,247.431396 
	C336.837616,248.753235 335.182892,252.566879 334.596893,255.935699 
	C334.454254,256.755554 334.315125,257.576080 334.165436,258.394653 
	C333.735718,260.744934 332.225769,263.402191 335.886047,264.607147 
	C340.461243,266.113251 346.304626,264.610077 347.201416,261.396790 
	C348.901306,255.305939 350.209167,249.120316 349.759827,242.705994 
	C349.474731,238.636063 347.148468,236.424454 343.418823,235.356079 
	C339.017700,234.095337 334.509338,234.350601 330.022339,234.402603 
	C316.662689,234.557388 312.697144,237.458466 308.373749,250.798874 
M406.509247,289.887482 
	C403.479523,304.192413 400.468475,318.501312 397.407043,332.799469 
	C396.635986,336.400604 396.605621,338.972992 401.645416,338.699493 
	C407.952332,338.357239 414.292175,338.645416 420.617584,338.613281 
	C426.023315,338.585754 428.327911,335.921326 428.072723,329.446960 
	C427.869171,324.283112 423.638062,326.515442 421.187469,326.410950 
	C413.254395,326.072510 413.265686,326.258850 414.923462,318.475220 
	C420.322052,293.127960 425.702332,267.776825 431.100067,242.429367 
	C431.549744,240.317673 432.376648,238.110748 430.434906,236.362579 
	C426.763519,233.057175 418.088837,235.926056 417.035461,240.808640 
	C413.565887,256.890961 410.162170,272.987518 406.509247,289.887482 
M271.340668,325.399872 
	C270.353638,322.502502 271.696716,319.830017 272.263275,317.126953 
	C277.516510,292.063751 282.859711,267.019379 288.170410,241.968185 
	C288.657471,239.670654 289.355225,237.254761 286.551880,235.866104 
	C280.961914,233.097015 275.083618,235.927841 273.758209,242.083511 
	C271.062378,254.603973 268.450623,267.142517 265.785370,279.669617 
	C262.012482,297.402710 258.280273,315.144836 254.399017,332.854248 
	C253.438950,337.234772 254.613739,338.962769 259.293701,338.694946 
	C264.940216,338.371704 270.619659,338.630829 276.284851,338.624268 
	C283.389923,338.616058 283.588104,338.275604 284.841003,331.274323 
	C285.451965,327.860352 284.818390,326.175659 281.032928,326.268127 
	C278.051361,326.340973 275.060822,326.044373 271.340668,325.399872 
z"/>
<path fill="#ffffff" opacity="1.000000" stroke="#ffffff" 
	d="
M254.321198,478.050781 
	C253.741989,481.413971 253.197830,484.351471 252.653656,487.288940 
	C252.767090,487.343628 252.880508,487.398315 252.993927,487.452972 
	C254.741837,482.964935 256.495056,478.478943 258.234924,473.987762 
	C258.911377,472.241577 259.485046,470.297089 262.022369,471.156372 
	C264.748566,472.079620 263.625397,473.994995 262.988434,475.660553 
	C260.073029,483.283691 257.089203,490.880676 254.187805,498.509064 
	C253.372070,500.653839 252.208328,501.819183 249.696884,501.271851 
	C246.996307,500.683319 246.202667,499.108734 246.636673,496.554565 
	C247.302475,492.636200 247.900665,488.706329 248.677994,483.839417 
	C246.768646,488.402649 245.073914,492.065552 243.708481,495.847321 
	C242.736160,498.540344 241.096497,498.870209 238.643311,498.234650 
	C236.195480,497.600464 235.418137,496.049408 235.798737,493.774200 
	C237.198517,485.406555 238.608765,477.040100 240.115234,468.691315 
	C240.372528,467.265411 240.853729,465.615570 242.973724,465.982147 
	C244.947342,466.323334 245.864014,467.477692 245.536880,469.513641 
	C244.852875,473.770630 244.170410,478.027893 243.956497,482.496033 
	C245.389389,478.954193 246.822357,475.412415 248.255173,471.870575 
	C249.077042,469.838989 249.683517,467.694733 252.775604,468.533661 
	C255.834442,469.363586 255.367157,471.524902 255.059631,473.696442 
	C254.873215,475.012787 254.593842,476.315948 254.321198,478.050781 
z"/>
<path fill="#ffffff" opacity="1.000000" stroke="#ffffff" 
	d="
M387.136536,466.739624 
	C389.065369,461.840820 393.473572,461.601746 397.387054,461.247375 
	C401.072632,460.913696 403.446533,463.919617 403.769745,467.106598 
	C404.467255,473.984985 409.487915,478.819336 411.386475,485.059387 
	C411.961823,486.950287 413.239716,488.834198 410.350250,489.970154 
	C407.599640,491.051453 406.969299,488.899384 405.933441,487.226532 
	C404.358704,484.683411 404.757690,480.557281 400.240082,479.925415 
	C399.053162,483.579041 401.621338,486.068817 402.373871,488.952698 
	C402.842712,490.749298 403.809570,492.384857 401.344421,493.539886 
	C398.616150,494.818176 397.766968,493.015015 396.978668,491.084259 
	C393.718597,483.099457 390.488617,475.102386 387.136536,466.739624 
M395.209656,467.451141 
	C393.619598,470.229187 395.285187,472.103973 397.145416,473.750153 
	C397.803131,474.332184 399.054657,473.769989 399.103149,472.918030 
	C399.248291,470.368469 398.838165,467.958099 395.209656,467.451141 
z"/>
<path fill="#ffffff" opacity="1.000000" stroke="#ffffff" 
	d="
M304.909241,478.091888 
	C308.259125,487.220917 306.729980,496.021240 304.306732,504.569489 
	C303.223633,508.390228 293.475433,509.690826 290.489899,507.001709 
	C289.662048,506.256134 289.626221,505.215210 289.694458,504.239105 
	C290.351013,494.848785 291.046570,485.461182 291.742920,475.908691 
	C296.594849,475.466095 300.843994,474.954132 304.909241,478.091888 
M298.725037,481.979462 
	C294.558319,487.847839 297.018768,494.671417 296.047974,501.001343 
	C295.992920,501.360168 296.793304,502.082703 297.317108,502.246094 
	C298.213379,502.525604 299.153839,501.880280 299.267670,501.128845 
	C300.229248,494.778870 302.420013,488.412811 298.725037,481.979462 
z"/>
<path fill="#ffffff" opacity="1.000000" stroke="#ffffff" 
	d="
M354.471741,473.285614 
	C357.688293,472.767151 357.989838,475.103943 358.653473,476.879852 
	C360.453156,481.695862 362.135803,486.555603 364.373962,491.334503 
	C363.947327,486.417999 363.466980,481.505341 363.118073,476.583313 
	C362.958557,474.333008 362.297455,471.362793 365.679413,471.125305 
	C369.111298,470.884277 368.176971,473.989868 368.318146,475.909882 
	C368.866211,483.364716 369.166412,490.838501 369.766235,498.288544 
	C370.002258,501.220337 369.314301,502.958801 366.229553,503.785889 
	C362.875977,504.684967 362.243408,502.522217 361.399353,500.278931 
	C358.649200,492.969482 355.832062,485.684845 353.140717,478.353943 
	C352.504913,476.622070 351.108307,474.513733 354.471741,473.285614 
z"/>
<path fill="#ffffff" opacity="1.000000" stroke="#ffffff" 
	d="
M274.660767,478.886108 
	C272.116211,478.412689 270.678711,479.110291 270.385376,481.457886 
	C270.141571,483.408691 270.356171,485.097015 272.592377,485.889130 
	C274.091614,486.420166 275.978760,486.695679 275.596405,489.110748 
	C275.169769,491.805511 273.162079,491.317719 271.371216,491.331360 
	C267.980133,491.357208 268.114105,494.174133 267.610291,496.307648 
	C267.054169,498.662628 268.678925,499.539551 270.652374,500.010986 
	C271.622070,500.242615 272.625305,500.449860 273.515564,500.873596 
	C275.310303,501.727936 275.507294,503.728973 274.345551,504.576477 
	C270.815247,507.151764 267.141235,504.548065 263.526825,504.168701 
	C261.272705,503.932098 260.495300,502.383911 260.900116,500.208527 
	C262.452057,491.868591 264.054230,483.537506 265.518341,475.182159 
	C265.946136,472.741089 267.341644,472.259003 269.429901,472.594025 
	C271.564484,472.936523 273.701019,473.270538 275.828003,473.656067 
	C277.634216,473.983429 279.714569,474.162781 279.511292,476.757050 
	C279.268250,479.858398 277.022003,479.220062 274.660767,478.886108 
z"/>
<path fill="#ffffff" opacity="1.000000" stroke="#ffffff" 
	d="
M386.459137,482.283142 
	C386.414276,484.121765 385.151062,484.485260 384.112579,484.848480 
	C380.880402,485.978973 381.539246,488.136139 382.373322,490.502838 
	C383.249969,492.990234 384.647766,493.907928 387.331726,493.021454 
	C389.074921,492.445740 391.400635,491.293030 392.227631,494.348785 
	C393.029144,497.310120 390.505890,497.518707 388.732971,498.148956 
	C379.565430,501.407806 379.537476,501.391296 376.760315,492.269501 
	C374.917725,486.217468 373.251709,480.109253 371.289459,474.097076 
	C370.338135,471.182281 371.227814,469.690369 374.024872,468.918640 
	C376.270844,468.298950 378.465576,467.490753 380.717316,466.895966 
	C382.211700,466.501221 383.752167,466.311157 384.262024,468.429443 
	C384.692352,470.217499 383.951385,471.260498 382.334229,471.936890 
	C380.842896,472.560638 378.934387,472.611237 378.157104,474.349487 
	C377.040558,476.846497 379.434082,479.986969 382.350708,479.720856 
	C384.342255,479.539124 386.093689,479.308014 386.459137,482.283142 
z"/>
<path fill="#ffffff" opacity="1.000000" stroke="#ffffff" 
	d="
M310.502258,488.566528 
	C310.463226,487.292664 310.413147,486.461304 310.416229,485.630127 
	C310.447571,477.160950 312.878387,475.257965 321.294617,477.055511 
	C322.850220,477.387787 324.216156,477.805115 324.236969,479.780121 
	C324.258453,481.813232 322.959320,482.259094 321.300323,482.319733 
	C318.902374,482.407379 316.502441,482.420624 316.323730,485.783051 
	C316.175598,488.570129 317.671021,489.633698 320.182343,489.925171 
	C321.702728,490.101624 322.558197,491.091461 322.594147,492.627167 
	C322.633179,494.295410 321.533936,495.012177 320.065063,495.127930 
	C317.060303,495.364716 316.235229,497.119598 316.272186,499.868561 
	C316.313599,502.948090 318.043121,503.857300 320.718201,504.020111 
	C322.634521,504.136719 324.494202,504.527008 324.307648,507.112183 
	C324.100983,509.975616 321.813110,509.343231 320.149750,509.334686 
	C308.825226,509.276642 310.644318,510.591949 310.535217,499.986877 
	C310.497589,496.327942 310.520599,492.668427 310.502258,488.566528 
z"/>
<path fill="#ffffff" opacity="1.000000" stroke="#ffffff" 
	d="
M335.548340,499.849701 
	C336.501404,502.561310 338.531555,501.978302 340.286530,502.044220 
	C342.063110,502.110962 343.713470,502.428406 343.924591,504.583344 
	C344.150818,506.892120 342.472809,507.106262 340.716858,507.415558 
	C330.395447,509.233795 330.257446,509.097870 329.613403,498.498322 
	C329.271576,492.872467 328.659363,487.263489 328.233612,481.642029 
	C328.065735,479.425476 327.131134,476.563232 330.675446,476.228149 
	C334.261444,475.889099 333.870972,479.079010 334.083099,481.144653 
	C334.709167,487.240906 335.023682,493.369171 335.548340,499.849701 
z"/>
<path fill="#ffffff" opacity="1.000000" stroke="#ffffff" 
	d="
M349.369629,506.310425 
	C346.045929,496.897705 345.769226,487.241302 344.484619,477.748993 
	C344.282684,476.256836 344.934692,475.157562 346.558014,474.876648 
	C348.321014,474.571503 349.641815,475.273468 349.898193,477.012482 
	C351.229065,486.039734 352.569031,495.069519 353.625488,504.131104 
	C353.936279,506.796906 351.549835,506.578186 349.369629,506.310425 
z"/>

<path fill="#ffffff" opacity="1.000000" stroke="#ffffff" 
	d="
M314.977600,188.742462 
	C353.024384,192.884521 390.185516,190.832520 426.900635,181.426437 
	C439.983093,178.074829 452.853729,174.100433 465.487183,169.384583 
	C469.458130,167.902298 471.582275,168.345917 472.739990,172.741699 
	C474.796082,180.548508 476.045288,188.317703 474.220642,196.356705 
	C472.790771,202.656281 467.666626,207.488998 461.719727,207.862259 
	C461.025909,206.066742 462.275513,204.681732 462.809143,203.191391 
	C464.046570,199.735428 465.278107,196.272034 465.609894,192.605072 
	C466.478638,183.003754 464.737518,181.589844 455.660553,184.066452 
	C432.504852,190.384338 408.950378,194.237946 385.040863,196.514404 
	C352.865936,199.577789 320.913666,197.779358 288.864594,194.668640 
	C265.540985,192.404831 242.173660,189.797531 218.642532,190.767975 
	C217.823669,190.801758 216.953308,190.819672 216.456909,189.120529 
	C233.487946,186.653214 250.424866,184.617126 267.571594,184.900574 
	C231.394547,183.169952 195.836227,185.049332 162.698105,203.874344 
	C163.311935,200.845703 165.193008,199.727615 166.766708,198.429626 
	C181.428909,186.336166 198.820297,180.226059 216.977676,176.111755 
	C229.930374,173.176773 242.982666,170.372604 256.443481,171.465149 
	C258.104706,171.599991 259.369812,171.022568 260.359009,169.746704 
	C273.032593,153.400009 291.323212,147.416519 310.296509,142.752197 
	C350.593903,132.845657 386.731323,142.390198 419.634705,166.471710 
	C423.658539,169.416687 427.741913,168.964340 431.998657,168.168365 
	C443.218567,166.070343 453.258881,161.545059 461.479004,153.412186 
	C461.948853,152.947342 462.495453,152.542648 463.060822,152.199936 
	C463.306427,152.051071 463.690277,152.130249 464.414124,152.075287 
	C464.990753,155.283157 463.389465,157.763733 461.709229,160.107346 
	C457.078583,166.566116 450.482574,170.462784 443.363831,173.481430 
	C429.598145,179.318649 415.055359,181.860046 400.272003,183.412674 
	C384.845184,185.032867 369.387512,185.626831 353.890320,185.312073 
	C352.006256,185.273819 349.937073,185.941223 347.465149,183.826660 
	C357.119659,179.894089 366.643494,177.437088 376.240845,175.396393 
	C385.754913,173.373413 395.387054,171.905670 404.810577,170.222427 
	C405.236359,166.894714 403.095337,166.170090 401.497375,165.168335 
	C383.582397,153.937454 363.846710,148.557220 342.905487,147.406006 
	C322.543549,146.286636 302.662384,148.510773 283.884399,157.145386 
	C276.371490,160.600021 269.244232,164.652496 263.474365,171.177887 
	C299.121429,174.718658 334.663086,179.127563 368.922119,162.587631 
	C371.176453,166.447769 368.661743,169.258026 365.923248,171.634857 
	C361.027466,175.884140 355.005554,177.939514 348.796844,179.380081 
	C330.350769,183.659988 311.575562,184.387054 292.743134,184.431839 
	C289.771271,184.438904 286.799377,184.432831 283.756256,185.550644 
	C294.009888,186.606827 304.263519,187.663010 314.977600,188.742462 
z"/>
    <g fill="#ffffff" stroke="#ffffff">

<path opacity="1.000000" d="
M323.757538,21.364420 
	C325.309601,25.987671 327.649200,29.028187 332.753815,28.869816 
	C334.030090,28.830217 335.346649,29.422337 336.612274,29.825834 
	C340.984894,31.219887 341.442688,32.750969 338.503113,36.106411 
	C337.847321,36.854996 337.141144,37.577171 336.371368,38.205139 
	C332.964355,40.984470 331.581238,44.255676 332.822235,48.752369 
	C333.550262,51.390186 333.358185,54.281940 333.610016,57.435795 
	C327.812775,57.610432 324.115997,52.690475 319.311859,52.793987 
	C314.429077,52.899193 310.629425,57.372784 305.554535,57.923069 
	C303.945190,54.705032 305.062408,51.682365 305.878174,48.966053 
	C307.180481,44.629906 305.807495,41.675793 302.763641,38.761723 
	C300.556610,36.648800 297.828918,34.829281 296.662659,31.433697 
	C301.135651,28.424210 306.873535,30.225725 310.932892,27.518856 
	C315.019348,24.793930 314.786041,18.471685 319.009949,15.530027 
	C321.720856,16.754328 322.414093,19.093868 323.757538,21.364420 
z"/>
<path opacity="1.000000" d="
M208.418335,40.724724 
	C209.891815,38.961006 210.965256,39.636833 211.878738,40.818314 
	C212.484329,41.601547 213.117233,42.452229 213.407578,43.376488 
	C215.564362,50.242321 220.159531,53.594570 227.382431,53.672066 
	C229.080505,53.690285 230.768265,54.669388 232.352203,55.171986 
	C232.332504,58.012688 230.583679,59.276611 229.014313,60.323746 
	C223.567398,63.958130 222.093185,68.860939 223.638870,75.011482 
	C224.113327,76.899406 225.015167,79.180550 223.188873,80.630295 
	C221.293488,82.134880 219.223740,80.617485 217.715607,79.539215 
	C212.386032,75.728676 207.336060,76.127090 202.099152,79.690735 
	C200.535400,80.754837 198.732559,81.966942 195.539078,80.616058 
	C199.458969,70.584381 195.978180,62.425755 186.884766,56.654133 
	C188.865875,53.795494 191.040024,53.571922 193.134506,53.578197 
	C199.935791,53.598568 204.348480,50.473560 206.479370,44.005211 
	C206.834167,42.928223 207.618515,41.992744 208.418335,40.724724 
z"/>
<path opacity="1.000000" d="
M114.425980,129.487671 
	C118.171059,129.118988 120.070000,127.204826 121.478180,124.204605 
	C122.861328,121.257744 123.827835,117.968956 126.542305,115.586594 
	C129.273148,116.629158 130.155930,119.159325 130.867706,121.369667 
	C132.790527,127.340668 136.885681,130.106094 142.847458,131.149872 
	C147.914566,132.037033 148.537994,133.644791 144.900604,137.128174 
	C140.560562,141.284439 138.416504,145.678909 140.035202,151.696182 
	C140.439301,153.198288 140.559402,155.164627 138.898315,156.268723 
	C137.166138,157.420029 135.516922,156.384872 134.387619,155.261307 
	C129.962601,150.858795 125.775284,151.515915 121.102638,155.001709 
	C119.087067,156.505341 116.742920,158.087875 113.832275,158.087646 
	C111.988792,156.205261 112.533554,153.912598 113.136909,151.992981 
	C114.998497,146.070206 113.897118,141.297089 108.772797,137.489105 
	C107.223671,136.337921 105.825218,134.788574 105.337471,132.536499 
	C107.727158,129.927170 111.076538,130.282440 114.425980,129.487671 
z"/>
<path opacity="1.000000" d="
M486.962891,133.532410 
	C487.153259,131.498276 488.577148,131.140106 489.839905,131.003845 
	C497.172607,130.212646 504.364899,127.997513 511.936523,129.982178 
	C517.299866,131.388031 522.375610,137.936035 521.453857,143.521225 
	C520.981873,146.381409 521.755676,149.115067 522.147461,151.905472 
	C522.436829,153.967270 523.581055,156.026871 522.559631,158.449112 
	C519.832153,159.193222 517.785889,157.501724 515.806458,156.273224 
	C511.217407,153.424973 506.996002,152.755569 501.918060,155.685059 
	C496.681915,158.705765 494.001617,156.802246 495.253784,151.077850 
	C496.447968,145.618805 494.938599,141.787567 490.854187,138.394974 
	C489.354828,137.149597 488.283234,135.389236 486.962891,133.532410 
z"/>
<path opacity="1.000000" d="
M424.329651,55.788254 
	C425.621979,56.848312 426.643036,57.704021 427.713928,58.491905 
	C435.013184,63.862045 436.740082,63.880909 445.414490,58.856243 
	C435.612366,65.001617 440.323700,73.924728 441.086578,82.008194 
	C436.652557,82.670624 434.112335,80.091148 431.282196,78.660484 
	C428.290833,77.148331 425.694977,76.437851 422.331909,77.732246 
	C418.043762,79.382668 414.345032,77.533478 414.258179,73.236404 
	C414.137848,67.284439 410.687622,63.864361 406.957458,60.274342 
	C405.785217,59.146141 404.395599,58.090145 404.325043,55.686771 
	C409.158844,53.326984 414.739502,53.465107 419.973938,52.315006 
	C422.018341,51.865814 422.712799,54.432785 424.329651,55.788254 
z"/>
<path opacity="1.000000" d="
M424.623596,48.379761 
	C422.984314,45.976887 423.446442,43.965698 425.112000,42.257771 
	C425.915863,41.433487 427.120392,41.665565 427.693939,42.647911 
	C428.916382,44.741722 431.777283,46.680641 430.638580,49.168560 
	C428.773438,53.243729 426.741547,49.684147 424.623596,48.379761 
z"/>
</g>
<g fill="#ffffff">
<path opacity="1.000000"
	d="
M260.149780,419.687073 
	C259.474548,416.214386 258.934937,413.150970 258.395325,410.087585 
	C257.646118,413.154297 258.192474,416.234131 257.542999,419.269257 
	C257.139404,421.155365 256.506744,422.368866 254.347763,422.190033 
	C252.432907,422.031464 251.779816,420.784210 251.774582,419.139374 
	C251.738037,407.654541 251.714615,396.169373 251.761795,384.684631 
	C251.775009,381.469971 254.275711,381.739136 256.439117,381.673828 
	C258.942719,381.598236 261.053864,381.846222 261.316803,385.164429 
	C261.668365,389.600586 262.328949,394.012268 263.999023,398.522919 
	C264.551361,394.455322 265.386780,390.400635 265.573364,386.316315 
	C265.746460,382.527313 267.517487,381.618958 270.953094,381.589294 
	C274.680450,381.557129 275.390747,383.440491 275.366730,386.566803 
	C275.287415,396.887207 275.358643,407.208771 275.299438,417.529419 
	C275.287506,419.608856 275.680054,422.261139 272.317383,422.144318 
	C268.887787,422.025146 269.794403,419.238220 269.679199,417.271851 
	C269.528625,414.701935 269.642334,412.116516 268.540863,409.524841 
	C268.049530,412.584930 267.602356,415.653076 267.047516,418.701599 
	C266.783936,420.149750 266.590240,421.799957 264.704102,422.126007 
	C262.809723,422.453491 260.983185,422.455536 260.149780,419.687073 
z"/>
<path opacity="1.000000"
	d="
M333.653320,400.000977 
	C333.660645,395.001617 333.767151,390.499207 333.642914,386.003113 
	C333.553528,382.769043 334.975616,381.732391 338.117889,381.592834 
	C350.401611,381.047241 354.227417,385.611023 350.604645,397.611450 
	C349.422546,401.527222 351.969086,404.647888 351.432159,408.338806 
	C350.933136,411.769104 351.285980,415.322845 351.257416,418.822205 
	C351.239807,420.983246 350.369537,422.241425 347.984772,422.251282 
	C345.625244,422.261017 344.688751,421.092682 344.678314,418.885803 
	C344.664124,415.886322 344.694855,412.884338 344.579132,409.888336 
	C344.506165,407.999359 345.204559,405.094177 342.559265,404.981171 
	C339.685089,404.858337 340.495789,407.825348 340.407318,409.658569 
	C340.270905,412.485474 340.373596,415.323334 340.347168,418.156342 
	C340.327789,420.235168 340.286499,422.231171 337.316711,422.254791 
	C334.283661,422.278900 333.741638,420.397247 333.727814,417.999207 
	C333.694092,412.166382 333.677307,406.333466 333.653320,400.000977 
M340.463837,391.010132 
	C340.437714,393.075256 340.046753,395.315948 343.005951,396.285370 
	C344.631073,394.616577 344.958923,392.702240 344.269257,390.786865 
	C343.469086,388.564484 342.145447,387.718903 340.463837,391.010132 
z"/>
<path opacity="1.000000"
	d="
M325.390411,394.058228 
	C325.377686,401.688263 325.454407,408.829865 325.328583,415.967834 
	C325.225983,421.788330 323.428833,423.319672 317.217224,423.353088 
	C310.750153,423.387878 308.765930,421.767090 308.682068,415.823212 
	C308.555603,406.858398 308.568024,397.889740 308.668701,388.924347 
	C308.732880,383.205811 310.583038,381.670685 316.842651,381.643524 
	C323.498566,381.614655 325.157867,383.054352 325.363739,389.085236 
	C325.414673,390.578156 325.384949,392.073822 325.390411,394.058228 
M318.625427,411.006989 
	C318.624786,407.350494 318.842529,403.676941 318.559082,400.042511 
	C318.301239,396.736664 319.916931,392.985748 316.306335,390.199036 
	C315.533478,398.758728 314.711517,407.263092 316.026245,416.230103 
	C318.925842,414.927032 318.444061,413.262115 318.625427,411.006989 
z"/>
<path opacity="1.000000"
	d="
M388.689148,395.313171 
	C386.972443,393.386261 388.645966,390.614136 386.340485,389.238892 
	C383.411987,392.264801 383.302490,395.677673 387.110413,397.511749 
	C397.123993,402.334747 394.398651,410.988159 393.995361,418.771759 
	C393.776642,422.992737 389.988922,423.375793 386.421021,423.403961 
	C382.507751,423.434875 378.786713,423.126068 378.067505,418.360321 
	C377.600830,415.268097 377.766663,412.070190 377.776459,408.920013 
	C377.782806,406.881744 379.017456,405.965485 381.012451,406.006866 
	C382.962555,406.047363 383.995483,406.924500 384.295288,408.964020 
	C384.631866,411.253632 383.427856,413.943481 385.735992,415.912323 
	C388.983582,411.966492 388.385193,406.816956 384.507080,403.995331 
	C377.904449,399.191467 375.916351,393.930817 377.828125,386.135590 
	C378.930511,381.640656 382.478455,381.649048 386.110077,381.615784 
	C389.884613,381.581146 393.092255,382.116913 394.093750,386.556091 
	C395.583374,393.158783 394.053711,395.949677 388.689148,395.313171 
z"/>
<path opacity="1.000000"
	d="
M283.820496,419.672729 
	C283.721497,408.397003 283.811127,397.583160 283.591553,386.775604 
	C283.511902,382.855042 284.911407,381.236267 288.802979,381.618896 
	C290.450623,381.780945 292.128448,381.607758 293.790222,381.660309 
	C299.126404,381.829132 301.067322,383.596375 301.263245,388.815125 
	C301.412872,392.800720 301.384674,396.801880 301.224579,400.787628 
	C301.072693,404.569183 299.314331,407.212555 295.186523,407.305023 
	C291.518036,407.387207 290.157654,409.223358 290.354065,412.692413 
	C290.457306,414.515717 290.427979,416.354828 290.323425,418.179016 
	C290.242279,419.595215 290.709747,421.458618 288.796936,421.983307 
	C286.854218,422.516205 284.754242,422.778931 283.820496,419.672729 
M294.612640,393.686646 
	C294.465210,391.801910 295.048462,388.969482 292.384155,389.028076 
	C289.654938,389.088043 290.614227,391.984802 290.390656,393.800690 
	C290.311005,394.447632 290.327576,395.117706 290.389526,395.768677 
	C290.566132,397.623993 289.803741,400.460510 292.445679,400.568634 
	C295.325439,400.686493 294.367584,397.778442 294.608948,395.982666 
	C294.673950,395.498932 294.616669,394.998749 294.612640,393.686646 
z"/>
<path opacity="1.000000"
	d="
M370.366821,382.316254 
	C371.366302,384.021240 371.807312,385.893585 370.440796,386.704803 
	C366.776764,388.879944 367.379547,392.274261 367.358887,395.535858 
	C367.311523,403.015991 367.324646,410.496521 367.305298,417.976868 
	C367.299316,420.294037 367.059052,422.326599 363.889099,422.261292 
	C360.687866,422.195343 360.652313,420.039795 360.647247,417.800629 
	C360.628906,409.655304 360.630157,401.509949 360.632202,393.364594 
	C360.632843,390.848663 360.821320,388.326935 357.805664,387.094208 
	C356.303101,386.479980 356.408264,384.971863 356.587585,383.625854 
	C356.822357,381.863586 358.196686,381.669189 359.567169,381.699280 
	C363.045837,381.775665 366.522705,381.932892 370.366821,382.316254 
z"/>
<path opacity="1.000000"
	d="
M243.366974,403.999115 
	C243.354141,409.164307 243.344299,413.829895 243.326477,418.495483 
	C243.318939,420.470764 243.024933,422.160278 240.438858,422.237244 
	C237.935104,422.311768 236.714523,421.227722 236.714951,418.720734 
	C236.716827,407.556976 236.707993,396.393219 236.703125,385.229462 
	C236.702194,383.091217 237.479965,381.792358 239.899460,381.745178 
	C242.605133,381.692413 243.338760,383.160034 243.334198,385.503723 
	C243.322510,391.502258 243.353073,397.500916 243.366974,403.999115 
z"/>
</g>
<g fill="#ffffff" stroke="#ffffff">
<path opacity="1.000000"
	d="
M370.624481,272.793030 
	C372.062836,266.034851 373.394165,259.685242 374.870209,253.369446 
	C375.646027,250.049820 377.409515,247.719498 381.218811,247.324478 
	C386.886963,246.736725 389.137054,248.865738 387.966125,254.520187 
	C384.862671,269.506500 381.594727,284.458801 378.388000,299.423706 
	C377.966736,301.389679 377.680939,303.647827 375.160339,303.893799 
	C371.890381,304.212891 368.433960,305.011780 365.405396,303.251617 
	C363.977325,302.421631 364.626343,300.477325 364.931000,299.052521 
	C366.774384,290.431915 368.687622,281.826294 370.624481,272.793030 
z"/>
<path opacity="1.000000"
	d="
M226.810577,276.044312 
	C228.492462,268.322205 230.065781,261.010101 231.722549,253.716980 
	C232.512222,250.240814 234.097946,247.611877 238.232864,247.292755 
	C243.940613,246.852219 246.170044,248.951187 245.005188,254.567627 
	C241.865158,269.707306 238.583679,284.817993 235.286835,299.924561 
	C234.415390,303.917664 229.875153,305.528107 224.234772,303.960663 
	C220.128784,302.819641 221.917114,299.881561 222.400925,297.454773 
	C223.797913,290.447632 225.284729,283.458344 226.810577,276.044312 
z"/>
<path opacity="1.000000"
	d="
M474.536743,270.428223 
	C471.088776,286.954773 467.751923,303.071594 464.373138,319.179626 
	C463.713531,322.324066 462.841583,325.318237 459.193787,326.466003 
	C453.385559,328.293671 449.895081,325.405090 451.105774,319.490509 
	C455.406097,298.481445 459.731567,277.477234 464.145264,256.491760 
	C465.675568,249.215698 467.602356,247.284485 472.605591,247.237198 
	C477.061523,247.195099 478.807800,249.010818 478.035370,253.400345 
	C477.055969,258.965912 475.780762,264.479431 474.536743,270.428223 
z"/>
</g>
</svg>
