<?xml version="1.0" standalone="no"?>
<!DOCTYPE svg PUBLIC "-//W3C//DTD SVG 20010904//EN"
 "http://www.w3.org/TR/2001/REC-SVG-20010904/DTD/svg10.dtd">
<svg version="1.0" xmlns="http://www.w3.org/2000/svg"
 width="300.000000pt" height="249.000000pt" viewBox="0 0 300.000000 249.000000"
 preserveAspectRatio="xMidYMid meet">
<metadata>
Created by potrace 1.10, written by Peter Selinger 2001-2011
</metadata>
<g transform="translate(0.000000,249.000000) scale(0.100000,-0.100000)"
fill="#ffffff" stroke="white">
<path d="M1380 2478 c-262 -17 -524 -134 -730 -326 -156 -144 -276 -335 -339
-537 -17 -54 -31 -108 -31 -118 0 -18 -6 -19 -85 -15 -47 2 -85 4 -86 4 0 -1
-24 -158 -53 -351 l-52 -350 171 -3 170 -3 34 -75 c56 -121 128 -222 241 -334
187 -187 392 -297 643 -345 109 -21 364 -21 473 0 381 73 720 333 882 676 l37
78 102 1 c98 0 103 1 108 22 5 22 123 639 128 667 2 11 -23 13 -135 12 l-136
-2 -7 33 c-26 131 -101 306 -186 432 -65 98 -211 246 -309 315 -246 173 -509
242 -840 219z m365 -57 c430 -91 769 -400 904 -824 17 -53 31 -101 31 -105 0
-4 -58 -7 -130 -7 -109 0 -130 2 -130 15 -1 30 -67 179 -115 256 -58 93 -174
213 -264 274 -91 61 -214 116 -317 142 -123 31 -342 31 -457 0 -317 -86 -571
-320 -672 -619 l-22 -65 -126 -2 c-93 -1 -127 2 -127 11 0 23 69 221 95 274
115 227 321 436 540 546 118 60 296 112 430 127 77 8 271 -4 360 -23z m-57
-267 c107 -22 228 -73 326 -138 94 -63 224 -195 274 -279 31 -52 93 -187 106
-232 6 -20 1 -20 -894 -20 -495 0 -900 3 -900 7 0 4 14 42 31 85 116 296 368
511 675 577 93 20 286 20 382 0z m-1109 -711 c140 -1 256 -4 258 -7 2 -2 -11
-13 -30 -25 -48 -29 -61 -61 -102 -252 -45 -208 -45 -245 -5 -284 28 -27 37
-29 103 -29 40 0 82 5 93 12 16 9 29 8 53 -1 27 -10 37 -9 62 6 28 15 33 15
52 2 26 -18 68 -20 85 -3 9 9 18 9 37 0 32 -15 130 -16 156 -2 14 8 32 6 67
-5 49 -17 111 -14 165 7 21 8 31 8 40 -1 15 -15 59 -14 83 3 17 13 22 13 43
-1 15 -10 34 -13 55 -8 35 7 44 7 138 -1 41 -3 74 -1 87 6 16 8 27 8 42 -1 34
-18 129 -15 167 4 46 25 66 75 107 269 45 216 45 231 -1 274 l-35 34 43 1 c24
1 106 3 183 4 77 1 151 3 165 3 14 1 76 -1 138 -4 107 -5 112 -6 112 -27 0
-51 -110 -581 -122 -589 -15 -9 -88 -10 -393 -7 -121 1 -626 1 -1123 1 -698 0
-907 -3 -918 -13 -11 -9 -18 -9 -26 -1 -8 8 -60 12 -154 12 -79 0 -145 4 -148
9 -6 9 79 585 89 601 3 5 30 10 58 11 29 0 61 4 72 9 11 5 27 6 35 2 8 -3 129
-7 269 -9z m478 -28 c-43 -30 -43 -30 -82 1 l-30 24 75 0 75 0 -38 -25z m448
13 c-35 -19 -77 -62 -91 -93 l-13 -30 -1 39 c0 74 -63 109 -117 66 l-25 -20
-32 22 c-17 12 -33 23 -35 25 -2 2 72 3 165 3 129 -1 164 -3 149 -12z m231
-13 c-50 -34 -47 -34 -85 -2 l-33 27 78 0 77 0 -37 -25z m459 18 c-35 -9 -75
-43 -95 -81 l-19 -37 -1 33 c0 40 -38 82 -73 82 -13 0 -36 -9 -49 -20 l-25
-19 -34 24 -33 25 175 -1 c96 -1 165 -4 154 -6z m-1227 -55 c13 -13 16 -58 6
-107 -6 -28 -10 -31 -45 -31 l-38 0 10 32 c5 18 9 36 9 40 0 11 -48 10 -54 -1
-11 -17 -76 -343 -70 -352 3 -5 15 -9 27 -9 21 0 25 10 46 115 l24 115 33 0
c19 0 34 -3 34 -7 0 -5 -13 -69 -28 -143 l-28 -135 -69 -3 c-85 -4 -112 2
-120 27 -6 20 68 385 87 425 5 13 20 29 32 34 29 15 129 15 144 0z m243 2 c12
-7 19 -21 19 -40 0 -24 -54 -294 -85 -427 -4 -19 -12 -23 -41 -23 l-36 0 6 38
c4 20 9 45 12 55 4 13 -1 17 -25 17 -28 0 -30 -3 -41 -55 -11 -54 -12 -55 -46
-55 -19 0 -34 5 -34 12 0 18 79 389 91 425 6 18 20 40 32 48 25 17 118 20 148
5z m159 7 c0 -1 -20 -96 -45 -210 -25 -115 -45 -212 -45 -216 0 -4 16 -5 35
-3 37 4 41 -1 29 -45 -6 -21 -12 -23 -81 -23 -73 0 -75 1 -69 23 3 12 27 124
53 249 l48 228 38 0 c20 0 37 -1 37 -3z m269 -6 c15 -9 17 -61 5 -113 -5 -25
-10 -28 -44 -28 l-38 0 11 35 c12 41 2 57 -29 45 -17 -7 -26 -34 -56 -181 -20
-95 -34 -177 -32 -181 3 -4 16 -8 28 -8 21 0 25 9 46 115 l24 115 36 0 36 0
-31 -142 -32 -143 -69 -3 c-38 -2 -79 0 -93 3 -23 6 -24 8 -18 73 4 37 22 137
42 222 41 186 52 200 143 200 31 0 63 -4 71 -9z m255 -7 c9 -8 16 -23 16 -32
0 -9 -20 -111 -45 -227 -25 -115 -45 -213 -45 -217 0 -5 -18 -8 -40 -8 -22 0
-40 1 -40 3 0 1 7 26 14 55 l14 53 -31 -3 c-30 -3 -33 -6 -41 -55 l-9 -53 -39
0 c-33 0 -38 3 -34 18 3 9 26 111 50 227 54 248 58 255 156 255 40 0 64 -5 74
-16z m153 3 c-4 -11 -84 -375 -90 -412 -1 -5 16 -8 37 -6 33 2 38 0 32 -14 -3
-9 -6 -25 -6 -36 0 -17 -8 -19 -75 -19 -41 0 -75 4 -75 9 0 5 23 116 50 245
28 130 50 238 50 241 0 3 18 5 41 5 30 0 40 -4 36 -13z m271 1 c19 -19 15 -64
-23 -245 -52 -246 -50 -243 -160 -243 -96 0 -97 3 -46 237 46 215 53 237 78
252 25 14 136 14 151 -1z m-1618 -656 c47 -79 199 -228 290 -284 86 -54 197
-100 296 -125 107 -26 324 -24 438 5 226 57 448 211 565 392 l42 65 140 5 c76
3 139 3 139 0 0 -3 -22 -46 -49 -97 -172 -324 -474 -547 -838 -620 -117 -23
-347 -22 -456 1 -321 70 -603 259 -771 519 -52 80 -106 179 -106 194 0 4 62 7
138 5 l138 -3 34 -57z m1600 52 c0 -19 -97 -138 -162 -200 -130 -123 -286
-205 -457 -239 -114 -23 -324 -16 -429 14 -210 61 -391 189 -517 365 -25 35
-45 65 -45 67 0 2 362 3 805 1 443 -1 805 -5 805 -8z"/>
<g fill="gold" stroke="gold">
  <path d="M1489 2393 c-13 -34 -26 -43 -61 -43 -35 0 -35 -7 -2 -32 22 -18 25
  -25 18 -61 l-6 -40 33 21 33 21 35 -21 34 -22 -6 41 c-6 36 -4 44 18 61 33 26
  32 32 -5 32 -24 0 -35 7 -51 35 -12 19 -23 35 -25 35 -3 0 -9 -12 -15 -27z
  m44 -55 c25 -19 11 -55 -23 -60 -24 -4 -29 0 -33 21 -5 27 7 51 27 51 7 0 20
  -6 29 -12z"/>
  <path d="M970 2270 c-11 -26 -17 -30 -53 -30 l-41 0 31 -32 c26 -28 29 -37 22
  -62 -11 -39 -7 -42 29 -21 27 16 30 16 62 0 l33 -17 -6 34 c-4 27 1 39 26 66
  l31 32 -41 0 c-36 0 -42 4 -53 30 -7 17 -16 30 -20 30 -4 0 -13 -13 -20 -30z
  m43 -48 c25 -27 12 -61 -24 -60 -16 1 -29 4 -29 9 0 4 -3 14 -6 22 -5 14 19
  47 35 47 4 0 15 -8 24 -18z"/>
  <path d="M1993 2270 c-10 -26 -16 -30 -47 -30 -43 0 -45 -8 -11 -40 21 -19 24
  -30 19 -57 -7 -37 -3 -40 31 -17 23 15 27 15 60 -5 l36 -21 -6 43 c-6 39 -4
  45 19 61 33 21 25 36 -19 36 -28 0 -35 5 -44 30 -5 17 -14 30 -18 30 -5 0 -14
  -13 -20 -30z m44 -45 c18 -13 20 -18 10 -40 -16 -33 -62 -35 -70 -3 -4 14 0
  29 10 40 20 22 23 22 50 3z"/>
  <path d="M577 1915 c-12 -26 -23 -35 -41 -35 -35 0 -42 -18 -16 -40 19 -16 21
  -25 15 -61 l-7 -42 32 23 c31 22 34 22 60 6 39 -23 43 -21 36 20 -6 30 -3 38
  18 55 35 28 33 39 -10 39 -31 0 -37 4 -50 35 -8 19 -16 35 -17 35 -2 0 -11
  -16 -20 -35z m39 -50 c31 -21 21 -62 -15 -62 -36 0 -56 38 -33 61 20 20 22 20
  48 1z"/>
  <path d="M2386 1918 c-12 -28 -22 -38 -39 -38 -12 0 -29 -4 -37 -10 -12 -7 -9
  -13 13 -30 24 -19 27 -27 21 -56 -7 -38 1 -42 34 -18 21 14 25 14 57 -6 l35
  -22 -6 45 c-6 39 -4 47 15 59 29 18 26 26 -13 34 -28 5 -38 13 -49 42 l-15 37
  -16 -37z m48 -95 c-5 -17 -14 -23 -34 -23 -38 0 -49 38 -18 63 21 17 22 17 39
  0 12 -12 16 -26 13 -40z"/>
</g>
<g fill="maroon" stroke="maroon">
  <path d="M1550 1833 c-129 -16 -247 -62 -295 -115 l-30 -32 35 23 c55 36 131
  67 188 80 74 16 201 14 280 -4 69 -16 193 -73 199 -92 2 -6 -23 -13 -62 -16
  -37 -4 -103 -17 -148 -29 l-82 -23 50 -3 c28 -2 100 1 160 7 186 18 301 58
  336 114 25 43 16 45 -26 9 -28 -25 -115 -62 -145 -62 -4 0 -37 20 -74 44 -109
  71 -273 114 -386 99z"/>
  <path d="M1699 1709 c-66 -35 -141 -42 -366 -35 -233 7 -307 -2 -430 -51 -61
  -24 -149 -80 -140 -89 2 -2 24 7 49 21 98 55 178 67 498 75 234 6 306 11 348
  24 52 17 92 46 92 66 0 13 -8 11 -51 -11z"/>
  <path d="M2130 1669 c-210 -73 -335 -83 -825 -65 -137 5 -244 5 -265 -1 -27
  -7 -12 -9 75 -11 61 -1 189 -9 285 -18 267 -25 553 -5 735 50 28 9 53 16 58
  16 11 0 9 -64 -3 -96 -14 -37 -6 -41 24 -11 19 19 26 37 26 65 0 48 -10 102
  -19 101 -3 0 -44 -14 -91 -30z"/>
</g>
<g fill="#000000" stroke="#00ff00" stroke-width="3">
  <path d="M1118 1323 c-10 -3 -20 -14 -23 -26 -3 -12 -15 -71 -29 -130 l-23
  -108 30 3 31 3 25 123 c25 124 23 143 -11 135z"/>
  <path d="M1794 1320 c-17 -7 -24 -28 -44 -122 -12 -62 -25 -119 -28 -125 -3
  -9 6 -13 27 -13 17 0 31 2 31 5 0 3 12 59 26 126 14 67 22 125 18 129 -5 4
  -18 4 -30 0z"/>
  <path d="M2200 1316 c0 -3 -16 -82 -35 -177 -37 -177 -37 -207 3 -183 15 10
  37 93 86 337 5 25 3 27 -24 27 -17 0 -30 -2 -30 -4z"/>
</g>
<g fill="gold" stroke="gold">
  <path d="M1854 307 c-10 -5 -21 -11 -23 -13 -7 -6 52 -134 62 -134 9 0 7 17
  -8 53 -5 12 -3 17 8 17 8 0 18 -11 21 -25 4 -14 13 -25 21 -25 15 0 12 18 -11
  55 -6 11 -14 32 -18 46 -7 32 -25 41 -52 26z"/>
  <path d="M1123 228 c-10 -82 -10 -81 4 -85 7 -3 20 13 29 36 9 23 20 39 24 36
  7 -5 20 27 20 53 0 22 -20 12 -30 -15 -6 -16 -15 -37 -20 -48 -9 -16 -10 -13
  -6 15 2 19 7 43 11 53 5 12 2 17 -8 17 -12 0 -18 -16 -24 -62z"/>
  <path d="M1773 280 l-22 -9 19 -67 c11 -37 21 -68 22 -69 9 -9 58 10 58 22 0
  10 -6 12 -20 8 -27 -9 -40 23 -16 40 18 14 5 32 -14 20 -6 -3 -13 1 -17 11 -4
  10 0 20 10 26 17 9 23 29 10 27 -5 0 -18 -4 -30 -9z"/>
  <path d="M1210 230 c-8 -23 -19 -44 -25 -48 -7 -4 -16 -18 -20 -30 -5 -19 -4
  -23 10 -20 14 3 65 104 65 130 0 23 -18 3 -30 -32z"/>
  <path d="M1719 263 c0 -5 0 -28 0 -53 1 -33 -1 -41 -8 -30 -6 8 -11 22 -11 31
  0 19 -26 56 -34 48 -10 -9 47 -139 61 -139 10 0 13 19 13 75 0 43 -4 75 -10
  75 -5 0 -10 -3 -11 -7z"/>
  <path d="M1254 233 c-3 -16 -10 -45 -16 -67 -5 -21 -6 -42 -1 -46 14 -14 56
  -16 60 -2 3 7 -4 12 -16 12 -16 0 -21 6 -21 26 0 21 4 24 20 19 14 -5 20 -2
  20 9 0 9 -7 16 -16 16 -9 0 -14 7 -12 18 2 11 11 16 26 14 25 -4 30 13 6 22
  -30 12 -44 6 -50 -21z"/>
  <path d="M1376 228 c-3 -13 -6 -46 -6 -74 0 -42 3 -53 19 -57 38 -10 51 10 51
  77 0 49 -4 65 -16 70 -28 11 -42 6 -48 -16z m44 -59 c0 -39 -3 -49 -16 -49
  -14 0 -15 7 -10 38 3 20 6 45 6 55 0 10 5 15 10 12 6 -3 10 -28 10 -56z"/>
  <path d="M1556 241 c-7 -11 1 -127 10 -142 5 -9 54 2 54 12 0 5 -9 9 -20 9
  -17 0 -20 7 -21 48 -1 56 -12 92 -23 73z"/>
  <path d="M1623 237 c3 -8 8 -39 12 -71 7 -50 19 -76 30 -64 2 2 -1 36 -7 76
  -7 52 -14 72 -25 72 -9 0 -13 -6 -10 -13z"/>
  <path d="M1468 165 l-3 -75 33 0 c17 0 32 5 32 10 0 6 -9 10 -20 10 -15 0 -20
  7 -20 25 0 16 6 25 15 25 8 0 15 5 15 10 0 6 -7 10 -15 10 -8 0 -15 9 -15 20
  0 13 7 20 20 20 11 0 20 5 20 10 0 6 -13 10 -29 10 l-29 0 -4 -75z"/>
</g>
<g fill="maroon" stroke="maroon">
<path d="M1120 595 c0 -78 3 -95 15 -95 12 0 15 17 15 95 0 78 -3 95 -15 95
-12 0 -15 -17 -15 -95z"/>
<path d="M1190 595 c0 -57 4 -95 10 -95 6 0 10 30 11 68 1 76 5 73 14 -10 4
-41 11 -58 21 -58 10 0 14 13 14 49 0 28 4 52 9 56 6 3 7 -17 4 -50 -5 -47 -3
-55 11 -55 14 0 16 13 13 95 -2 80 -5 95 -18 95 -19 0 -28 -27 -30 -85 0 -32
-2 -36 -9 -20 -5 11 -9 39 -9 63 -1 35 -4 42 -21 42 -19 0 -20 -7 -20 -95z"/>
<path d="M1340 596 c0 -79 3 -96 15 -96 10 0 15 10 15 34 0 28 4 35 23 38 20
3 22 9 22 58 l0 55 -37 3 -38 3 0 -95z m50 34 c0 -22 -4 -40 -10 -40 -5 0 -10
18 -10 40 0 22 5 40 10 40 6 0 10 -18 10 -40z"/>
<path d="M1467 684 c-4 -4 -7 -47 -7 -96 l0 -88 35 0 36 0 -3 93 c-3 90 -3 92
-28 95 -14 2 -29 0 -33 -4z m43 -95 c0 -55 -3 -69 -15 -69 -12 0 -15 14 -15
68 0 38 3 72 6 75 16 16 24 -9 24 -74z"/>
<path d="M1580 595 c0 -70 3 -95 13 -95 8 0 11 14 9 45 -3 36 -1 45 12 45 12
0 16 -10 16 -45 0 -33 4 -45 15 -45 17 0 21 65 5 90 -5 9 -5 19 1 27 6 7 8 26
4 43 -6 26 -11 30 -41 30 l-34 0 0 -95z m45 45 c0 -13 -6 -25 -12 -27 -9 -3
-13 6 -13 27 0 21 4 30 13 28 6 -3 12 -15 12 -28z"/>
<path d="M1680 680 c0 -5 5 -10 10 -10 6 0 10 -35 10 -85 0 -69 3 -85 15 -85
12 0 15 16 15 85 0 50 4 85 10 85 6 0 10 5 10 10 0 6 -16 10 -35 10 -19 0 -35
-4 -35 -10z"/>
<path d="M1786 675 c-13 -34 -6 -63 19 -79 17 -11 25 -26 25 -46 0 -17 -4 -30
-10 -30 -5 0 -10 11 -10 24 0 14 -5 28 -10 31 -14 9 -23 -20 -16 -51 6 -21 11
-25 39 -22 30 3 32 6 35 45 3 36 -1 44 -22 59 -26 16 -34 48 -16 59 6 3 10 -3
10 -13 0 -11 7 -23 16 -26 12 -5 15 1 12 27 -3 28 -7 32 -34 35 -22 2 -33 -2
-38 -13z"/>
</g>
</g>
</svg>
